<svg width="264" height="245" viewBox="0 0 264 245" fill="none" xmlns="http://www.w3.org/2000/svg">
<path d="M0 2.94208C6.96774 -0.912345 13.9355 -0.14146 20.9032 0.629425C27.871 1.40031 34.8387 2.94208 41.0323 5.25474C44.129 6.02562 47.2258 7.56739 50.3226 9.10916C53.4194 10.6509 56.5161 12.1927 58.8387 13.7345C61.9355 14.5054 65.0323 14.5054 68.9032 14.5054H78.9677C82.8387 15.2762 86.7097 17.5889 90.5807 19.9016C93.6774 22.2142 96.7742 26.0686 98.3226 29.9231C101.419 37.6319 101.419 46.1117 102.194 53.0496L101.419 51.5078L104.516 57.6749L98.3226 56.1332C109.935 46.8825 121.548 39.1737 134.71 32.2357C147.871 25.2978 161.032 20.6724 175.742 17.5889C182.71 16.0471 190.452 15.2762 198.194 16.0471C202.065 16.0471 205.935 17.5889 209.032 18.3598C210.581 19.1307 212.129 19.1307 213.677 19.1307C215.226 19.1307 216 19.1307 218.323 18.3598C226.065 17.5889 233.032 17.5889 240 18.3598C243.871 18.3598 246.968 19.1307 250.839 19.9016C252.387 19.9016 254.71 20.6724 256.258 20.6724C257.032 20.6724 257.806 21.4433 259.355 21.4433C260.129 21.4433 260.129 22.2142 260.903 22.9851C263.226 25.2977 263.226 27.6104 262.452 28.3813V27.6104C262.452 27.6104 262.452 27.6104 263.226 27.6104C264 27.6104 264 29.1522 264 29.9231C263.226 29.9231 263.226 30.6939 263.226 30.6939L262.452 31.4648H261.677L260.903 32.2357L257.806 34.5484L250.839 38.4028L251.613 36.0901C251.613 36.861 252.387 36.861 250.839 36.0901C250.839 36.0901 251.613 35.3193 252.387 36.861C253.161 38.4028 252.387 38.4028 252.387 38.4028L251.613 39.1737H250.839L250.065 39.9446L246.194 42.2572C243.097 43.799 240.774 44.5699 239.226 46.8825C236.903 48.4243 234.581 50.737 232.258 52.2787C230.71 53.0496 229.935 53.8205 228.387 54.5914C227.613 54.5914 226.839 55.3623 226.065 55.3623C225.29 55.3623 223.742 56.1332 222.194 54.5914L224.516 53.0496C225.29 53.8205 225.29 56.1332 224.516 56.904C223.742 57.6749 222.968 58.4458 222.194 59.2167C220.645 60.7585 219.097 61.5294 217.548 62.3002C216 63.0711 214.452 63.842 212.903 64.6129C212.129 64.6129 211.355 65.3838 210.581 65.3838C209.806 65.3838 209.806 65.3838 209.032 65.3838H208.258C208.258 65.3838 208.258 65.3838 207.484 65.3838C206.71 65.3838 206.71 64.6129 205.935 64.6129L198.968 56.1332L208.258 62.3002C209.806 63.0711 209.806 65.3838 209.032 66.1547C209.806 66.9255 209.032 67.6964 209.032 68.4673C207.484 70.0091 206.71 70.78 205.161 71.5509C203.613 72.3217 202.065 73.0926 200.516 73.8635C199.742 73.8635 198.968 74.6344 198.194 74.6344C197.419 74.6344 195.871 74.6344 195.097 73.0926L198.194 72.3217C198.194 75.4053 195.871 78.4888 192.774 80.0306C189.677 81.5724 186.581 82.3432 184.258 82.3432L185.806 79.2597C186.581 80.0306 187.355 82.3432 186.581 83.885C185.806 85.4268 185.032 86.1977 184.258 86.9686C182.71 88.5103 180.387 88.5103 178.839 89.2812C175.742 90.823 172.645 92.3648 170.323 95.4483C164.903 100.844 159.484 106.241 152.516 110.866C149.419 113.179 146.323 114.72 144.774 117.804C143.226 120.117 141.677 123.971 141.677 127.055C141.677 130.138 142.452 133.993 142.452 137.847C142.452 141.701 143.226 145.556 143.226 149.41V160.974C143.226 162.515 143.226 164.828 143.226 166.37V168.682C143.226 169.453 144 170.995 144 171.766C144.774 177.162 144 177.933 146.323 181.787L150.194 192.58C152.516 199.518 154.839 207.227 157.161 214.165C159.484 221.873 161.806 228.811 161.806 238.062V241.916L157.935 242.687C156.387 242.687 155.613 242.687 154.065 242.687C152.516 242.687 150.968 241.146 149.419 239.604C149.419 238.833 147.871 237.291 150.194 240.375C150.968 241.146 151.742 241.146 152.516 241.146C153.29 241.146 154.839 241.146 155.613 240.375C156.387 239.604 157.161 238.833 157.161 238.833C157.161 238.062 157.161 238.062 157.161 238.062V238.833L156.387 243.458H152.516C149.419 243.458 147.871 241.916 146.323 240.375C144.774 238.833 144 237.291 144 235.749C144 235.749 143.226 234.979 144.774 236.52C144.774 236.52 144.774 236.52 145.548 237.291C146.323 237.291 147.097 238.062 147.871 238.062C149.419 238.062 150.968 237.291 150.968 237.291C151.742 236.52 151.742 236.52 151.742 236.52C151.742 236.52 151.742 237.291 150.968 238.062L149.419 245L143.226 241.146L139.355 238.062C138.581 237.291 137.032 236.52 136.258 235.749C134.71 234.208 132.387 231.895 130.839 229.582C128.516 225.728 126.194 221.873 124.645 218.019C120.774 210.31 117.677 202.601 115.355 194.122C113.032 186.413 110.71 177.933 109.161 169.453V167.911V167.141C109.161 166.37 109.161 165.599 108.387 164.828C107.613 163.286 106.839 161.744 106.065 160.203C103.742 157.119 100.645 152.494 99.0968 148.639L107.613 150.181C106.065 151.723 105.29 152.494 103.742 153.265C102.968 154.036 101.419 154.036 99.871 154.036C98.3226 154.036 96 153.265 95.2258 152.494C93.6774 150.952 93.6774 150.952 92.129 149.41C91.3548 147.868 90.5807 146.327 89.8065 145.556C89.0323 144.014 88.2581 142.472 87.4839 140.931L83.6129 136.305C78.1936 129.367 73.5484 122.429 69.6774 113.95C68.129 110.095 65.8064 106.241 65.0323 101.615L64.2581 97.7609V94.6774V88.5103L63.4839 63.842C63.4839 60.7585 61.9355 56.1332 61.1613 52.2787C59.6129 48.4243 58.8387 43.799 57.2903 39.9446C56.5161 36.0901 54.9677 32.2357 53.4194 28.3813C51.871 25.2977 49.5484 22.2142 46.4516 19.9016C40.2581 14.5054 32.5161 11.4218 24.7742 9.10916C20.9032 7.56739 17.0323 6.79651 12.3871 6.02562C8.51613 5.25474 3.87097 3.71297 0 2.94208ZM0.774194 2.94208C5.41936 3.71297 8.51613 2.94208 13.1613 4.48385C17.0323 5.25474 21.6774 6.02562 25.5484 6.79651C34.0645 9.10916 42.5806 11.4218 49.5484 16.818C53.4194 19.9016 55.7419 22.9851 58.0645 26.8395C60.3871 29.9231 61.9355 34.5484 63.4839 38.4028C64.2581 42.2572 65.8065 46.1116 66.5807 50.737C67.3548 54.5914 68.9032 58.4458 69.6774 63.842C70.4516 72.3217 71.2258 80.8015 72 89.2812L72.7742 95.4483V98.5318L73.5484 100.074C74.3226 103.157 75.871 107.012 78.1936 110.866C82.0645 117.804 86.7097 124.742 91.3548 130.909L95.2258 135.534C96.7742 137.847 98.3226 139.389 99.0968 141.701C99.871 143.243 99.871 143.243 99.871 143.243L101.419 144.785L99.871 144.014C99.0968 144.014 99.0968 144.014 99.0968 144.014L99.871 143.243L105.29 137.076L108.387 144.785C109.935 148.639 111.484 150.952 113.806 154.036C115.355 156.348 116.903 157.89 117.677 160.203C118.452 161.744 118.452 162.515 119.226 164.057C119.226 164.828 119.226 165.599 119.226 166.37V167.911C120 175.62 122.323 183.329 124.645 191.038C126.968 198.747 130.065 206.456 133.935 213.394C135.484 217.248 137.806 220.332 139.355 224.186C140.129 225.728 140.903 226.499 142.452 228.041C143.226 228.811 144 228.811 144.774 229.582L145.548 230.353L147.097 231.895L139.355 234.208C139.355 232.666 140.129 231.895 140.903 230.353C140.903 230.353 140.903 229.582 141.677 229.582C141.677 229.582 142.452 228.811 142.452 228.041C142.452 228.041 144.774 226.499 145.548 226.499C146.323 226.499 147.097 226.499 147.871 227.27C148.645 228.041 148.645 228.041 149.419 228.041C150.968 230.353 150.968 231.124 150.968 231.124C150.968 231.895 150.968 231.895 150.968 231.895C150.968 231.895 150.968 231.895 150.194 231.895L145.548 235.749C145.548 234.979 145.548 234.208 146.323 233.437C146.323 233.437 146.323 232.666 147.097 231.895C147.097 231.895 147.871 231.124 148.645 230.353C149.419 229.582 150.968 229.582 152.516 229.582C153.29 229.582 154.065 230.353 154.839 231.124C155.613 231.895 155.613 231.895 156.387 232.666V233.437C156.387 234.208 156.387 233.437 156.387 233.437C155.613 232.666 154.839 231.895 154.839 231.895L150.968 236.52C150.968 230.353 149.419 222.644 147.097 215.706C144.774 208.768 142.452 201.06 140.129 194.122L137.032 183.329L136.258 180.246C136.258 179.475 135.484 177.933 135.484 177.162C135.484 174.849 135.484 172.537 134.71 171.766L133.935 165.599C133.935 163.286 133.935 161.744 133.935 159.432V147.868V136.305C133.935 132.451 133.161 129.367 133.935 124.742C134.71 120.117 136.258 116.262 138.581 113.179C140.903 109.324 145.548 107.012 147.871 105.47C154.065 101.615 159.484 96.9901 164.903 91.5939C168 88.5103 171.097 86.1977 174.968 84.6559C178.839 83.885 182.71 82.3432 181.161 80.8015L178.839 78.4888H182.71C185.032 78.4888 188.129 77.7179 190.452 76.9471C192.774 76.1762 194.323 73.8635 194.323 71.5509L197.419 70.78C197.419 70.78 198.194 70.78 199.742 70.78C201.29 70.0091 202.065 70.0091 203.613 69.2382C205.161 68.4673 205.936 67.6964 206.71 66.9255C207.484 66.1547 207.484 66.1547 207.484 65.3838C207.484 64.6129 207.484 65.3838 207.484 65.3838L209.806 63.0711L209.032 62.3002H209.806C211.355 61.5294 212.129 61.5294 212.903 61.5294C214.452 60.7585 216 59.9876 217.548 59.9876C219.097 59.2167 219.871 58.4458 221.419 57.6749C222.968 56.904 222.968 56.1332 222.968 55.3623L224.516 53.0496C223.742 53.0496 224.516 53.0496 225.29 53.0496C226.065 53.0496 226.839 52.2787 226.839 52.2787C228.387 51.5078 229.161 50.737 230.71 49.9661C233.032 48.4243 235.355 46.8825 237.677 44.5699C240 42.2572 243.097 40.7155 245.419 39.9446L249.29 37.6319L250.065 36.861H250.839C250.839 36.861 250.065 36.861 250.065 37.6319C250.065 37.6319 249.29 37.6319 250.065 39.1737C250.839 40.7155 252.387 39.9446 251.613 39.9446C250.065 39.9446 249.29 39.1737 249.29 38.4028C249.29 37.6319 248.516 37.6319 248.516 36.861L247.742 35.3193L249.29 34.5484C251.613 33.0066 253.161 32.2357 255.484 30.6939L258.581 28.3813L259.355 27.6104C259.355 27.6104 259.355 27.6104 258.581 28.3813C258.581 29.1522 258.581 29.9231 259.355 30.6939C260.129 30.6939 260.129 30.6939 259.355 30.6939C259.355 30.6939 259.355 30.6939 258.581 30.6939L257.806 29.9231C257.806 29.1522 257.032 29.1522 257.032 29.1522C257.032 28.3813 257.032 28.3813 257.032 27.6104V26.8395V28.3813C257.032 28.3813 257.032 28.3813 256.258 28.3813C255.484 28.3813 254.71 27.6104 253.935 27.6104C252.387 27.6104 250.839 26.8395 249.29 26.8395C246.194 26.8395 242.323 26.0686 239.226 26.0686C232.258 26.0686 225.29 26.0686 218.323 26.8395C216.774 26.8395 214.452 27.6104 212.129 27.6104C209.806 27.6104 208.258 27.6104 205.935 26.8395C202.065 26.0686 199.742 25.2977 195.871 25.2977C188.903 25.2977 182.71 26.0686 175.742 26.8395C162.581 29.9231 149.419 34.5484 137.032 41.4863C124.645 47.6534 112.258 54.5914 101.419 63.842L97.5484 66.9255L98.3226 61.5294L95.2258 55.3623V54.5914V53.8205C95.2258 46.1116 95.2258 39.1737 92.129 33.0066C89.8064 26.8395 84.3871 22.9851 78.1936 20.6724H78.9677L68.129 19.9016C65.0323 19.9016 61.1613 19.9016 57.2903 18.3598C54.1936 16.818 51.0968 14.5054 48 12.9636C45.6774 11.4218 42.5806 10.6509 39.4839 9.10916C33.2903 6.02562 27.0968 4.48385 20.129 2.94208C17.0323 2.1712 13.9355 2.1712 10.8387 2.1712C6.96774 1.40031 3.87097 2.94208 0.774194 2.94208Z" fill="black" fill-opacity="0.03"/>
</svg>
