<svg width="1440" height="34" viewBox="0 0 1440 34" fill="none" xmlns="http://www.w3.org/2000/svg">
<path fill-rule="evenodd" clip-rule="evenodd" d="M78.0136 10.14C76.8736 12.18 76.3036 14.565 76.3036 17.295C76.3036 19.995 76.8736 22.365 78.0136 24.405C79.1836 26.445 80.6686 28.14 82.4686 29.49C84.2986 30.84 86.3536 31.86 88.6336 32.55C90.9136 33.24 93.1786 33.585 95.4286 33.585C97.6786 33.585 99.9436 33.24 102.224 32.55C104.504 31.86 106.559 30.84 108.389 29.49C110.219 28.14 111.704 26.445 112.844 24.405C114.014 22.365 114.599 19.995 114.599 17.295C114.599 14.565 114.014 12.18 112.844 10.14C111.704 8.07004 110.219 6.36004 108.389 5.01004C106.559 3.63004 104.504 2.61004 102.224 1.95004C99.9436 1.26004 97.6786 0.915039 95.4286 0.915039C93.1786 0.915039 90.9136 1.26004 88.6336 1.95004C86.3536 2.61004 84.2986 3.63004 82.4686 5.01004C80.6686 6.36004 79.1836 8.07004 78.0136 10.14ZM81.9286 22.875C81.2986 21.015 80.9836 19.065 80.9836 17.025C80.9836 15.045 81.2986 13.155 81.9286 11.355C82.5586 9.52504 83.4736 7.93504 84.6736 6.58504C85.9036 5.20504 87.4186 4.11004 89.2186 3.30004C91.0186 2.46004 93.0886 2.02504 95.4286 1.99504C97.7686 1.96504 99.8386 2.37004 101.639 3.21004C103.439 4.05004 104.954 5.19004 106.184 6.63004C107.414 8.04004 108.344 9.69004 108.974 11.58C109.634 13.44 109.964 15.39 109.964 17.43C109.934 19.41 109.604 21.3 108.974 23.1C108.344 24.9 107.414 26.49 106.184 27.87C104.984 29.25 103.484 30.345 101.684 31.155C99.8836 31.965 97.8136 32.37 95.4736 32.37C93.1336 32.37 91.0636 31.965 89.2636 31.155C87.4636 30.315 85.9486 29.19 84.7186 27.78C83.4886 26.37 82.5586 24.735 81.9286 22.875ZM21.43 10.5C22.15 10.5 22.72 10.455 23.14 10.365C23.56 10.275 23.875 10.095 24.085 9.82504C24.295 9.55504 24.43 9.19504 24.49 8.74504C24.55 8.26504 24.58 7.65004 24.58 6.90004C24.58 6.18004 24.55 5.56504 24.49 5.05504C24.43 4.51504 24.295 4.09504 24.085 3.79504C23.875 3.46504 23.56 3.22504 23.14 3.07504C22.72 2.92504 22.15 2.85004 21.43 2.85004H4.77997V10.5H21.43ZM4.77997 11.85V33H0.279968V1.50004H22.33C23.32 1.50004 24.25 1.60504 25.12 1.81504C25.99 1.99504 26.755 2.29504 27.415 2.71504C28.075 3.13504 28.585 3.69004 28.945 4.38004C29.335 5.07004 29.53 5.91004 29.53 6.90004C29.53 7.89004 29.335 8.71504 28.945 9.37504C28.585 10.005 28.075 10.5 27.415 10.86C26.755 11.22 25.99 11.475 25.12 11.625C24.25 11.775 23.32 11.85 22.33 11.85H4.77997ZM39.43 10.5H65.08V1.50004H69.58V33H65.08V11.85H39.43V33H34.93V1.50004H39.43V10.5ZM145.783 1.50004L145.018 2.85004H132.373L132.283 33H128.233V2.85004H114.733L115.498 1.50004H145.783ZM148.017 10.14C146.877 12.18 146.307 14.565 146.307 17.295C146.307 19.995 146.877 22.365 148.017 24.405C149.187 26.445 150.672 28.14 152.472 29.49C154.302 30.84 156.357 31.86 158.637 32.55C160.917 33.24 163.182 33.585 165.432 33.585C167.682 33.585 169.947 33.24 172.227 32.55C174.507 31.86 176.562 30.84 178.392 29.49C180.222 28.14 181.707 26.445 182.847 24.405C184.017 22.365 184.602 19.995 184.602 17.295C184.602 14.565 184.017 12.18 182.847 10.14C181.707 8.07004 180.222 6.36004 178.392 5.01004C176.562 3.63004 174.507 2.61004 172.227 1.95004C169.947 1.26004 167.682 0.915039 165.432 0.915039C163.182 0.915039 160.917 1.26004 158.637 1.95004C156.357 2.61004 154.302 3.63004 152.472 5.01004C150.672 6.36004 149.187 8.07004 148.017 10.14ZM151.932 22.875C151.302 21.015 150.987 19.065 150.987 17.025C150.987 15.045 151.302 13.155 151.932 11.355C152.562 9.52504 153.477 7.93504 154.677 6.58504C155.907 5.20504 157.422 4.11004 159.222 3.30004C161.022 2.46004 163.092 2.02504 165.432 1.99504C167.772 1.96504 169.842 2.37004 171.642 3.21004C173.442 4.05004 174.957 5.19004 176.187 6.63004C177.417 8.04004 178.347 9.69004 178.977 11.58C179.637 13.44 179.967 15.39 179.967 17.43C179.937 19.41 179.607 21.3 178.977 23.1C178.347 24.9 177.417 26.49 176.187 27.87C174.987 29.25 173.487 30.345 171.687 31.155C169.887 31.965 167.817 32.37 165.477 32.37C163.137 32.37 161.067 31.965 159.267 31.155C157.467 30.315 155.952 29.19 154.722 27.78C153.492 26.37 152.562 24.735 151.932 22.875ZM215.993 11.85H212.888L213.653 10.5H220.493V30.075C218.693 31.245 216.743 32.13 214.643 32.73C212.543 33.3 210.443 33.585 208.343 33.585C206.093 33.585 203.828 33.24 201.548 32.55C199.268 31.86 197.213 30.84 195.383 29.49C193.583 28.14 192.098 26.445 190.928 24.405C189.788 22.365 189.218 19.995 189.218 17.295C189.218 14.565 189.788 12.18 190.928 10.14C192.098 8.07004 193.583 6.36004 195.383 5.01004C197.213 3.63004 199.268 2.61004 201.548 1.95004C203.828 1.26004 206.093 0.915039 208.343 0.915039C210.443 0.915039 212.543 1.21504 214.643 1.81504C216.743 2.38504 218.693 3.25504 220.493 4.42504L219.188 6.72004C217.928 5.25004 216.398 4.09504 214.598 3.25504C212.798 2.38504 210.713 1.96504 208.343 1.99504C206.003 2.02504 203.933 2.46004 202.133 3.30004C200.333 4.11004 198.818 5.20504 197.588 6.58504C196.388 7.93504 195.473 9.52504 194.843 11.355C194.213 13.155 193.898 15.045 193.898 17.025C193.898 19.065 194.213 21.015 194.843 22.875C195.473 24.735 196.403 26.37 197.633 27.78C198.863 29.19 200.378 30.315 202.178 31.155C203.978 31.965 206.048 32.37 208.388 32.37C209.888 32.37 211.268 32.205 212.528 31.875C213.788 31.515 214.943 31.035 215.993 30.435V11.85ZM251.566 10.5H234.916V2.85004H251.566C252.286 2.85004 252.856 2.92504 253.276 3.07504C253.696 3.22504 254.011 3.46504 254.221 3.79504C254.431 4.09504 254.566 4.51504 254.626 5.05504C254.686 5.56504 254.716 6.18004 254.716 6.90004C254.716 7.65004 254.686 8.26504 254.626 8.74504C254.566 9.19504 254.431 9.55504 254.221 9.82504C254.011 10.095 253.696 10.275 253.276 10.365C252.856 10.455 252.286 10.5 251.566 10.5ZM234.916 11.85H244.501L256.651 33H261.871L249.631 11.85H252.466C253.456 11.85 254.386 11.775 255.256 11.625C256.126 11.475 256.891 11.22 257.551 10.86C258.211 10.5 258.721 10.005 259.081 9.37504C259.471 8.71504 259.666 7.89004 259.666 6.90004C259.666 5.91004 259.471 5.07004 259.081 4.38004C258.721 3.69004 258.211 3.13504 257.551 2.71504C256.891 2.29504 256.126 1.99504 255.256 1.81504C254.386 1.60504 253.456 1.50004 252.466 1.50004H230.416V33H234.916V11.85ZM283.417 7.80004L276.667 19.5H291.157L284.407 7.80004H283.417ZM291.922 20.85H275.948L268.883 33H267.307L285.487 1.50004H285.938L304.162 33H298.943L291.922 20.85ZM332.903 10.365C332.483 10.455 331.913 10.5 331.193 10.5H314.543V2.85004H331.193C331.913 2.85004 332.483 2.92504 332.903 3.07504C333.323 3.22504 333.638 3.46504 333.848 3.79504C334.058 4.09504 334.193 4.51504 334.253 5.05504C334.313 5.56504 334.343 6.18004 334.343 6.90004C334.343 7.65004 334.313 8.26504 334.253 8.74504C334.193 9.19504 334.058 9.55504 333.848 9.82504C333.638 10.095 333.323 10.275 332.903 10.365ZM314.543 33V11.85H332.093C333.083 11.85 334.013 11.775 334.883 11.625C335.753 11.475 336.518 11.22 337.178 10.86C337.838 10.5 338.348 10.005 338.708 9.37504C339.098 8.71504 339.293 7.89004 339.293 6.90004C339.293 5.91004 339.098 5.07004 338.708 4.38004C338.348 3.69004 337.838 3.13504 337.178 2.71504C336.518 2.29504 335.753 1.99504 334.883 1.81504C334.013 1.60504 333.083 1.50004 332.093 1.50004H310.043V33H314.543ZM349.193 10.5H374.843V1.50004H379.343V33H374.843V11.85H349.193V33H344.693V1.50004H349.193V10.5ZM410.099 10.5H392.369V2.85004H414.554L415.319 1.50004H387.869V33H416.354L417.119 31.65H392.369V11.85H409.334L410.099 10.5ZM426.711 10.5H443.361C444.081 10.5 444.651 10.455 445.071 10.365C445.491 10.275 445.806 10.095 446.016 9.82504C446.226 9.55504 446.361 9.19504 446.421 8.74504C446.481 8.26504 446.511 7.65004 446.511 6.90004C446.511 6.18004 446.481 5.56504 446.421 5.05504C446.361 4.51504 446.226 4.09504 446.016 3.79504C445.806 3.46504 445.491 3.22504 445.071 3.07504C444.651 2.92504 444.081 2.85004 443.361 2.85004H426.711V10.5ZM436.296 11.85H426.711V33H422.211V1.50004H444.261C445.251 1.50004 446.181 1.60504 447.051 1.81504C447.921 1.99504 448.686 2.29504 449.346 2.71504C450.006 3.13504 450.516 3.69004 450.876 4.38004C451.266 5.07004 451.461 5.91004 451.461 6.90004C451.461 7.89004 451.266 8.71504 450.876 9.37504C450.516 10.005 450.006 10.5 449.346 10.86C448.686 11.22 447.921 11.475 447.051 11.625C446.181 11.775 445.251 11.85 444.261 11.85H441.426L453.666 33H448.446L436.296 11.85ZM572.014 10.14C570.874 12.18 570.304 14.565 570.304 17.295C570.304 19.995 570.874 22.365 572.014 24.405C573.184 26.445 574.669 28.14 576.469 29.49C578.299 30.84 580.354 31.86 582.634 32.55C584.914 33.24 587.179 33.585 589.429 33.585C591.679 33.585 593.944 33.24 596.224 32.55C598.504 31.86 600.559 30.84 602.389 29.49C604.219 28.14 605.704 26.445 606.844 24.405C608.014 22.365 608.599 19.995 608.599 17.295C608.599 14.565 608.014 12.18 606.844 10.14C605.704 8.07004 604.219 6.36004 602.389 5.01004C600.559 3.63004 598.504 2.61004 596.224 1.95004C593.944 1.26004 591.679 0.915039 589.429 0.915039C587.179 0.915039 584.914 1.26004 582.634 1.95004C580.354 2.61004 578.299 3.63004 576.469 5.01004C574.669 6.36004 573.184 8.07004 572.014 10.14ZM575.929 22.875C575.299 21.015 574.984 19.065 574.984 17.025C574.984 15.045 575.299 13.155 575.929 11.355C576.559 9.52504 577.474 7.93504 578.674 6.58504C579.904 5.20504 581.419 4.11004 583.219 3.30004C585.019 2.46004 587.089 2.02504 589.429 1.99504C591.769 1.96504 593.839 2.37004 595.639 3.21004C597.439 4.05004 598.954 5.19004 600.184 6.63004C601.414 8.04004 602.344 9.69004 602.974 11.58C603.634 13.44 603.964 15.39 603.964 17.43C603.934 19.41 603.604 21.3 602.974 23.1C602.344 24.9 601.414 26.49 600.184 27.87C598.984 29.25 597.484 30.345 595.684 31.155C593.884 31.965 591.814 32.37 589.474 32.37C587.134 32.37 585.064 31.965 583.264 31.155C581.464 30.315 579.949 29.19 578.719 27.78C577.489 26.37 576.559 24.735 575.929 22.875ZM515.43 10.5C516.15 10.5 516.72 10.455 517.14 10.365C517.56 10.275 517.875 10.095 518.085 9.82504C518.295 9.55504 518.43 9.19504 518.49 8.74504C518.55 8.26504 518.58 7.65004 518.58 6.90004C518.58 6.18004 518.55 5.56504 518.49 5.05504C518.43 4.51504 518.295 4.09504 518.085 3.79504C517.875 3.46504 517.56 3.22504 517.14 3.07504C516.72 2.92504 516.15 2.85004 515.43 2.85004H498.78V10.5H515.43ZM498.78 11.85V33H494.28V1.50004H516.33C517.32 1.50004 518.25 1.60504 519.12 1.81504C519.99 1.99504 520.755 2.29504 521.415 2.71504C522.075 3.13504 522.585 3.69004 522.945 4.38004C523.335 5.07004 523.53 5.91004 523.53 6.90004C523.53 7.89004 523.335 8.71504 522.945 9.37504C522.585 10.005 522.075 10.5 521.415 10.86C520.755 11.22 519.99 11.475 519.12 11.625C518.25 11.775 517.32 11.85 516.33 11.85H498.78ZM533.43 10.5H559.08V1.50004H563.58V33H559.08V11.85H533.43V33H528.93V1.50004H533.43V10.5ZM639.783 1.50004L639.018 2.85004H626.373L626.283 33H622.233V2.85004H608.733L609.498 1.50004H639.783ZM642.017 10.14C640.877 12.18 640.307 14.565 640.307 17.295C640.307 19.995 640.877 22.365 642.017 24.405C643.187 26.445 644.672 28.14 646.472 29.49C648.302 30.84 650.357 31.86 652.637 32.55C654.917 33.24 657.182 33.585 659.432 33.585C661.682 33.585 663.947 33.24 666.227 32.55C668.507 31.86 670.562 30.84 672.392 29.49C674.222 28.14 675.707 26.445 676.847 24.405C678.017 22.365 678.602 19.995 678.602 17.295C678.602 14.565 678.017 12.18 676.847 10.14C675.707 8.07004 674.222 6.36004 672.392 5.01004C670.562 3.63004 668.507 2.61004 666.227 1.95004C663.947 1.26004 661.682 0.915039 659.432 0.915039C657.182 0.915039 654.917 1.26004 652.637 1.95004C650.357 2.61004 648.302 3.63004 646.472 5.01004C644.672 6.36004 643.187 8.07004 642.017 10.14ZM645.932 22.875C645.302 21.015 644.987 19.065 644.987 17.025C644.987 15.045 645.302 13.155 645.932 11.355C646.562 9.52504 647.477 7.93504 648.677 6.58504C649.907 5.20504 651.422 4.11004 653.222 3.30004C655.022 2.46004 657.092 2.02504 659.432 1.99504C661.772 1.96504 663.842 2.37004 665.642 3.21004C667.442 4.05004 668.957 5.19004 670.187 6.63004C671.417 8.04004 672.347 9.69004 672.977 11.58C673.637 13.44 673.967 15.39 673.967 17.43C673.937 19.41 673.607 21.3 672.977 23.1C672.347 24.9 671.417 26.49 670.187 27.87C668.987 29.25 667.487 30.345 665.687 31.155C663.887 31.965 661.817 32.37 659.477 32.37C657.137 32.37 655.067 31.965 653.267 31.155C651.467 30.315 649.952 29.19 648.722 27.78C647.492 26.37 646.562 24.735 645.932 22.875ZM709.993 11.85H706.888L707.653 10.5H714.493V30.075C712.693 31.245 710.743 32.13 708.643 32.73C706.543 33.3 704.443 33.585 702.343 33.585C700.093 33.585 697.828 33.24 695.548 32.55C693.268 31.86 691.213 30.84 689.383 29.49C687.583 28.14 686.098 26.445 684.928 24.405C683.788 22.365 683.218 19.995 683.218 17.295C683.218 14.565 683.788 12.18 684.928 10.14C686.098 8.07004 687.583 6.36004 689.383 5.01004C691.213 3.63004 693.268 2.61004 695.548 1.95004C697.828 1.26004 700.093 0.915039 702.343 0.915039C704.443 0.915039 706.543 1.21504 708.643 1.81504C710.743 2.38504 712.693 3.25504 714.493 4.42504L713.188 6.72004C711.928 5.25004 710.398 4.09504 708.598 3.25504C706.798 2.38504 704.713 1.96504 702.343 1.99504C700.003 2.02504 697.933 2.46004 696.133 3.30004C694.333 4.11004 692.818 5.20504 691.588 6.58504C690.388 7.93504 689.473 9.52504 688.843 11.355C688.213 13.155 687.898 15.045 687.898 17.025C687.898 19.065 688.213 21.015 688.843 22.875C689.473 24.735 690.403 26.37 691.633 27.78C692.863 29.19 694.378 30.315 696.178 31.155C697.978 31.965 700.048 32.37 702.388 32.37C703.888 32.37 705.268 32.205 706.528 31.875C707.788 31.515 708.943 31.035 709.993 30.435V11.85ZM745.566 10.5H728.916V2.85004H745.566C746.286 2.85004 746.856 2.92504 747.276 3.07504C747.696 3.22504 748.011 3.46504 748.221 3.79504C748.431 4.09504 748.566 4.51504 748.626 5.05504C748.686 5.56504 748.716 6.18004 748.716 6.90004C748.716 7.65004 748.686 8.26504 748.626 8.74504C748.566 9.19504 748.431 9.55504 748.221 9.82504C748.011 10.095 747.696 10.275 747.276 10.365C746.856 10.455 746.286 10.5 745.566 10.5ZM728.916 11.85H738.501L750.651 33H755.871L743.631 11.85H746.466C747.456 11.85 748.386 11.775 749.256 11.625C750.126 11.475 750.891 11.22 751.551 10.86C752.211 10.5 752.721 10.005 753.081 9.37504C753.471 8.71504 753.666 7.89004 753.666 6.90004C753.666 5.91004 753.471 5.07004 753.081 4.38004C752.721 3.69004 752.211 3.13504 751.551 2.71504C750.891 2.29504 750.126 1.99504 749.256 1.81504C748.386 1.60504 747.456 1.50004 746.466 1.50004H724.416V33H728.916V11.85ZM777.417 7.80004L770.667 19.5H785.157L778.407 7.80004H777.417ZM785.922 20.85H769.948L762.883 33H761.307L779.487 1.50004H779.938L798.162 33H792.943L785.922 20.85ZM826.903 10.365C826.483 10.455 825.913 10.5 825.193 10.5H808.543V2.85004H825.193C825.913 2.85004 826.483 2.92504 826.903 3.07504C827.323 3.22504 827.638 3.46504 827.848 3.79504C828.058 4.09504 828.193 4.51504 828.253 5.05504C828.313 5.56504 828.343 6.18004 828.343 6.90004C828.343 7.65004 828.313 8.26504 828.253 8.74504C828.193 9.19504 828.058 9.55504 827.848 9.82504C827.638 10.095 827.323 10.275 826.903 10.365ZM808.543 33V11.85H826.093C827.083 11.85 828.013 11.775 828.883 11.625C829.753 11.475 830.518 11.22 831.178 10.86C831.838 10.5 832.348 10.005 832.708 9.37504C833.098 8.71504 833.293 7.89004 833.293 6.90004C833.293 5.91004 833.098 5.07004 832.708 4.38004C832.348 3.69004 831.838 3.13504 831.178 2.71504C830.518 2.29504 829.753 1.99504 828.883 1.81504C828.013 1.60504 827.083 1.50004 826.093 1.50004H804.043V33H808.543ZM843.193 10.5H868.843V1.50004H873.343V33H868.843V11.85H843.193V33H838.693V1.50004H843.193V10.5ZM904.099 10.5H886.369V2.85004H908.554L909.319 1.50004H881.869V33H910.354L911.119 31.65H886.369V11.85H903.334L904.099 10.5ZM920.711 10.5H937.361C938.081 10.5 938.651 10.455 939.071 10.365C939.491 10.275 939.806 10.095 940.016 9.82504C940.226 9.55504 940.361 9.19504 940.421 8.74504C940.481 8.26504 940.511 7.65004 940.511 6.90004C940.511 6.18004 940.481 5.56504 940.421 5.05504C940.361 4.51504 940.226 4.09504 940.016 3.79504C939.806 3.46504 939.491 3.22504 939.071 3.07504C938.651 2.92504 938.081 2.85004 937.361 2.85004H920.711V10.5ZM930.296 11.85H920.711V33H916.211V1.50004H938.261C939.251 1.50004 940.181 1.60504 941.051 1.81504C941.921 1.99504 942.686 2.29504 943.346 2.71504C944.006 3.13504 944.516 3.69004 944.876 4.38004C945.266 5.07004 945.461 5.91004 945.461 6.90004C945.461 7.89004 945.266 8.71504 944.876 9.37504C944.516 10.005 944.006 10.5 943.346 10.86C942.686 11.22 941.921 11.475 941.051 11.625C940.181 11.775 939.251 11.85 938.261 11.85H935.426L947.666 33H942.446L930.296 11.85ZM1064.3 17.295C1064.3 14.565 1064.87 12.18 1066.01 10.14C1067.18 8.07004 1068.67 6.36004 1070.47 5.01004C1072.3 3.63004 1074.35 2.61004 1076.63 1.95004C1078.91 1.26004 1081.18 0.915039 1083.43 0.915039C1085.68 0.915039 1087.94 1.26004 1090.22 1.95004C1092.5 2.61004 1094.56 3.63004 1096.39 5.01004C1098.22 6.36004 1099.7 8.07004 1100.84 10.14C1102.01 12.18 1102.6 14.565 1102.6 17.295C1102.6 19.995 1102.01 22.365 1100.84 24.405C1099.7 26.445 1098.22 28.14 1096.39 29.49C1094.56 30.84 1092.5 31.86 1090.22 32.55C1087.94 33.24 1085.68 33.585 1083.43 33.585C1081.18 33.585 1078.91 33.24 1076.63 32.55C1074.35 31.86 1072.3 30.84 1070.47 29.49C1068.67 28.14 1067.18 26.445 1066.01 24.405C1064.87 22.365 1064.3 19.995 1064.3 17.295ZM1068.98 17.025C1068.98 19.065 1069.3 21.015 1069.93 22.875C1070.56 24.735 1071.49 26.37 1072.72 27.78C1073.95 29.19 1075.46 30.315 1077.26 31.155C1079.06 31.965 1081.13 32.37 1083.47 32.37C1085.81 32.37 1087.88 31.965 1089.68 31.155C1091.48 30.345 1092.98 29.25 1094.18 27.87C1095.41 26.49 1096.34 24.9 1096.97 23.1C1097.6 21.3 1097.93 19.41 1097.96 17.43C1097.96 15.39 1097.63 13.44 1096.97 11.58C1096.34 9.69004 1095.41 8.04004 1094.18 6.63004C1092.95 5.19004 1091.44 4.05004 1089.64 3.21004C1087.84 2.37004 1085.77 1.96504 1083.43 1.99504C1081.09 2.02504 1079.02 2.46004 1077.22 3.30004C1075.42 4.11004 1073.9 5.20504 1072.67 6.58504C1071.47 7.93504 1070.56 9.52504 1069.93 11.355C1069.3 13.155 1068.98 15.045 1068.98 17.025ZM1011.14 10.365C1010.72 10.455 1010.15 10.5 1009.43 10.5H992.78V2.85004H1009.43C1010.15 2.85004 1010.72 2.92504 1011.14 3.07504C1011.56 3.22504 1011.88 3.46504 1012.08 3.79504C1012.29 4.09504 1012.43 4.51504 1012.49 5.05504C1012.55 5.56504 1012.58 6.18004 1012.58 6.90004C1012.58 7.65004 1012.55 8.26504 1012.49 8.74504C1012.43 9.19504 1012.29 9.55504 1012.08 9.82504C1011.88 10.095 1011.56 10.275 1011.14 10.365ZM992.78 33V11.85H1010.33C1011.32 11.85 1012.25 11.775 1013.12 11.625C1013.99 11.475 1014.75 11.22 1015.41 10.86C1016.07 10.5 1016.58 10.005 1016.94 9.37504C1017.33 8.71504 1017.53 7.89004 1017.53 6.90004C1017.53 5.91004 1017.33 5.07004 1016.94 4.38004C1016.58 3.69004 1016.07 3.13504 1015.41 2.71504C1014.75 2.29504 1013.99 1.99504 1013.12 1.81504C1012.25 1.60504 1011.32 1.50004 1010.33 1.50004H988.28V33H992.78ZM1053.08 10.5H1027.43V1.50004H1022.93V33H1027.43V11.85H1053.08V33H1057.58V1.50004H1053.08V10.5ZM1133.02 2.85004L1133.78 1.50004H1103.5L1102.73 2.85004H1116.23V33H1120.28L1120.37 2.85004H1133.02ZM1134.31 17.295C1134.31 14.565 1134.88 12.18 1136.02 10.14C1137.19 8.07004 1138.67 6.36004 1140.47 5.01004C1142.3 3.63004 1144.36 2.61004 1146.64 1.95004C1148.92 1.26004 1151.18 0.915039 1153.43 0.915039C1155.68 0.915039 1157.95 1.26004 1160.23 1.95004C1162.51 2.61004 1164.56 3.63004 1166.39 5.01004C1168.22 6.36004 1169.71 8.07004 1170.85 10.14C1172.02 12.18 1172.6 14.565 1172.6 17.295C1172.6 19.995 1172.02 22.365 1170.85 24.405C1169.71 26.445 1168.22 28.14 1166.39 29.49C1164.56 30.84 1162.51 31.86 1160.23 32.55C1157.95 33.24 1155.68 33.585 1153.43 33.585C1151.18 33.585 1148.92 33.24 1146.64 32.55C1144.36 31.86 1142.3 30.84 1140.47 29.49C1138.67 28.14 1137.19 26.445 1136.02 24.405C1134.88 22.365 1134.31 19.995 1134.31 17.295ZM1138.99 17.025C1138.99 19.065 1139.3 21.015 1139.93 22.875C1140.56 24.735 1141.49 26.37 1142.72 27.78C1143.95 29.19 1145.47 30.315 1147.27 31.155C1149.07 31.965 1151.14 32.37 1153.48 32.37C1155.82 32.37 1157.89 31.965 1159.69 31.155C1161.49 30.345 1162.99 29.25 1164.19 27.87C1165.42 26.49 1166.35 24.9 1166.98 23.1C1167.61 21.3 1167.94 19.41 1167.97 17.43C1167.97 15.39 1167.64 13.44 1166.98 11.58C1166.35 9.69004 1165.42 8.04004 1164.19 6.63004C1162.96 5.19004 1161.44 4.05004 1159.64 3.21004C1157.84 2.37004 1155.77 1.96504 1153.43 1.99504C1151.09 2.02504 1149.02 2.46004 1147.22 3.30004C1145.42 4.11004 1143.91 5.20504 1142.68 6.58504C1141.48 7.93504 1140.56 9.52504 1139.93 11.355C1139.3 13.155 1138.99 15.045 1138.99 17.025ZM1200.89 11.85H1203.99V30.435C1202.94 31.035 1201.79 31.515 1200.53 31.875C1199.27 32.205 1197.89 32.37 1196.39 32.37C1194.05 32.37 1191.98 31.965 1190.18 31.155C1188.38 30.315 1186.86 29.19 1185.63 27.78C1184.4 26.37 1183.47 24.735 1182.84 22.875C1182.21 21.015 1181.9 19.065 1181.9 17.025C1181.9 15.045 1182.21 13.155 1182.84 11.355C1183.47 9.52504 1184.39 7.93504 1185.59 6.58504C1186.82 5.20504 1188.33 4.11004 1190.13 3.30004C1191.93 2.46004 1194 2.02504 1196.34 1.99504C1198.71 1.96504 1200.8 2.38504 1202.6 3.25504C1204.4 4.09504 1205.93 5.25004 1207.19 6.72004L1208.49 4.42504C1206.69 3.25504 1204.74 2.38504 1202.64 1.81504C1200.54 1.21504 1198.44 0.915039 1196.34 0.915039C1194.09 0.915039 1191.83 1.26004 1189.55 1.95004C1187.27 2.61004 1185.21 3.63004 1183.38 5.01004C1181.58 6.36004 1180.1 8.07004 1178.93 10.14C1177.79 12.18 1177.22 14.565 1177.22 17.295C1177.22 19.995 1177.79 22.365 1178.93 24.405C1180.1 26.445 1181.58 28.14 1183.38 29.49C1185.21 30.84 1187.27 31.86 1189.55 32.55C1191.83 33.24 1194.09 33.585 1196.34 33.585C1198.44 33.585 1200.54 33.3 1202.64 32.73C1204.74 32.13 1206.69 31.245 1208.49 30.075V10.5H1201.65L1200.89 11.85ZM1222.92 10.5H1239.57C1240.29 10.5 1240.86 10.455 1241.28 10.365C1241.7 10.275 1242.01 10.095 1242.22 9.82504C1242.43 9.55504 1242.57 9.19504 1242.63 8.74504C1242.69 8.26504 1242.72 7.65004 1242.72 6.90004C1242.72 6.18004 1242.69 5.56504 1242.63 5.05504C1242.57 4.51504 1242.43 4.09504 1242.22 3.79504C1242.01 3.46504 1241.7 3.22504 1241.28 3.07504C1240.86 2.92504 1240.29 2.85004 1239.57 2.85004H1222.92V10.5ZM1232.5 11.85H1222.92V33H1218.42V1.50004H1240.47C1241.46 1.50004 1242.39 1.60504 1243.26 1.81504C1244.13 1.99504 1244.89 2.29504 1245.55 2.71504C1246.21 3.13504 1246.72 3.69004 1247.08 4.38004C1247.47 5.07004 1247.67 5.91004 1247.67 6.90004C1247.67 7.89004 1247.47 8.71504 1247.08 9.37504C1246.72 10.005 1246.21 10.5 1245.55 10.86C1244.89 11.22 1244.13 11.475 1243.26 11.625C1242.39 11.775 1241.46 11.85 1240.47 11.85H1237.63L1249.87 33H1244.65L1232.5 11.85ZM1264.67 19.5L1271.42 7.80004H1272.41L1279.16 19.5H1264.67ZM1263.95 20.85H1279.92L1286.94 33H1292.16L1273.94 1.50004H1273.49L1255.31 33H1256.88L1263.95 20.85ZM1319.19 10.5C1319.91 10.5 1320.48 10.455 1320.9 10.365C1321.32 10.275 1321.64 10.095 1321.85 9.82504C1322.06 9.55504 1322.19 9.19504 1322.25 8.74504C1322.31 8.26504 1322.34 7.65004 1322.34 6.90004C1322.34 6.18004 1322.31 5.56504 1322.25 5.05504C1322.19 4.51504 1322.06 4.09504 1321.85 3.79504C1321.64 3.46504 1321.32 3.22504 1320.9 3.07504C1320.48 2.92504 1319.91 2.85004 1319.19 2.85004H1302.54V10.5H1319.19ZM1302.54 11.85V33H1298.04V1.50004H1320.09C1321.08 1.50004 1322.01 1.60504 1322.88 1.81504C1323.75 1.99504 1324.52 2.29504 1325.18 2.71504C1325.84 3.13504 1326.35 3.69004 1326.71 4.38004C1327.1 5.07004 1327.29 5.91004 1327.29 6.90004C1327.29 7.89004 1327.1 8.71504 1326.71 9.37504C1326.35 10.005 1325.84 10.5 1325.18 10.86C1324.52 11.22 1323.75 11.475 1322.88 11.625C1322.01 11.775 1321.08 11.85 1320.09 11.85H1302.54ZM1362.84 10.5H1337.19V1.50004H1332.69V33H1337.19V11.85H1362.84V33H1367.34V1.50004H1362.84V10.5ZM1380.37 10.5H1398.1L1397.33 11.85H1380.37V31.65H1405.12L1404.35 33H1375.87V1.50004H1403.32L1402.55 2.85004H1380.37V10.5ZM1431.36 10.5H1414.71V2.85004H1431.36C1432.08 2.85004 1432.65 2.92504 1433.07 3.07504C1433.49 3.22504 1433.81 3.46504 1434.02 3.79504C1434.23 4.09504 1434.36 4.51504 1434.42 5.05504C1434.48 5.56504 1434.51 6.18004 1434.51 6.90004C1434.51 7.65004 1434.48 8.26504 1434.42 8.74504C1434.36 9.19504 1434.23 9.55504 1434.02 9.82504C1433.81 10.095 1433.49 10.275 1433.07 10.365C1432.65 10.455 1432.08 10.5 1431.36 10.5ZM1414.71 11.85H1424.3L1436.45 33H1441.67L1429.43 11.85H1432.26C1433.25 11.85 1434.18 11.775 1435.05 11.625C1435.92 11.475 1436.69 11.22 1437.35 10.86C1438.01 10.5 1438.52 10.005 1438.88 9.37504C1439.27 8.71504 1439.46 7.89004 1439.46 6.90004C1439.46 5.91004 1439.27 5.07004 1438.88 4.38004C1438.52 3.69004 1438.01 3.13504 1437.35 2.71504C1436.69 2.29504 1435.92 1.99504 1435.05 1.81504C1434.18 1.60504 1433.25 1.50004 1432.26 1.50004H1410.21V33H1414.71V11.85ZM477 15C477 16.6569 475.657 18 474 18C472.343 18 471 16.6569 471 15C471 13.3431 472.343 12 474 12C475.657 12 477 13.3431 477 15ZM968 18C969.657 18 971 16.6569 971 15C971 13.3431 969.657 12 968 12C966.343 12 965 13.3431 965 15C965 16.6569 966.343 18 968 18Z" fill="#EDECE9"/>
</svg>
